<?xml version="1.0" encoding="UTF-8"?>
<svg id="Layer_1" data-name="Layer 1" xmlns="http://www.w3.org/2000/svg" viewBox="0 0 116.28 67.5">
  <defs>
    <style>
      .cls-1, .cls-2 {
        fill: #fcb13c;
      }

      .cls-1, .cls-2, .cls-3, .cls-4 {
        stroke-width: 0px;
      }

      .cls-2, .cls-3, .cls-4 {
        isolation: isolate;
      }

      .cls-3 {
        fill: #680500;
      }

      .cls-4 {
        fill: #4c5b62;
      }
    </style>
  </defs>
  <path class="cls-2" d="m20.85,46.16c0,1.03-.02,2.06,0,3.09.02.83-.36,1.07-1.13.96-7.71-1.14-15.1-8.71-14.67-17.19.41-8.03,7.35-14.85,14.91-15.56.71-.07,1.08.19,1.08.91,0,2.15,0,4.3,0,6.46,0,.94-.77.91-1.39,1.07-3.46.9-5.54,3.11-6.21,6.61-.79,4.08,1.76,8.26,5.79,9.26,1.32.33,1.8.85,1.63,2.16-.1.74-.02,1.49-.02,2.24h0Z"/>
  <path class="cls-1" d="m22.25,46.3c0-.61,0-1.22,0-1.82.03-2.17.06-2.05,2.09-2.67,2.06-.63,3.67-1.95,4.74-3.87,1.12-2.01,3.02-3.1,4.84-2.52,3.12,1,4.44,2.67,2.66,5.89-2.87,5.19-7.46,7.91-13.2,8.89-.81.14-1.02-.36-1.05-.95-.06-.98-.02-1.96-.02-2.94-.02,0-.04,0-.06,0Z"/>
  <path class="cls-4" d="m90.79,28.3c-1.41,2.4-2.83,4.81-4.23,7.21-.96,1.64-1.15,1.64-2.14-.05-1.18-2.02-2.36-4.04-3.54-6.06-.22-.38-.49-.74-.99-1.03,0,2.74,0,5.48,0,8.21,0,.37,0,.75,0,1.12,0,.41-.08.73-.6.74-.52,0-.78-.19-.78-.74.01-1.03,0-2.06,0-3.09,0-2.76-.02-5.52,0-8.29,0-.45-.29-1.1.43-1.31.69-.2.98.31,1.28.82,1.45,2.51,2.92,5.01,4.39,7.51.94,1.59.94,1.58,1.83.03,1.45-2.51,2.91-5.02,4.36-7.53.29-.51.57-1.04,1.27-.83.72.21.43.86.44,1.32.02,3.6.02,7.21,0,10.81,0,.51.23,1.23-.66,1.27-1.05.05-.73-.78-.73-1.31-.02-2.9-.01-5.8-.01-8.7-.1-.04-.21-.08-.31-.12Z"/>
  <path class="cls-4" d="m61.97,31.61c0-1.78-.02-3.55.01-5.33,0-.53-.3-1.34.74-1.31,1.05.03.66.86.66,1.36.04,3.13.06,6.27,0,9.4-.02,1.06.21,1.5,1.37,1.44,1.72-.1,3.46-.03,5.19-.02.43,0,.98-.16,1,.6.02.73-.46.69-.94.69-2.34,0-4.68-.02-7.01.02-.82.01-1.04-.33-1.03-1.09.03-1.92.01-3.83.01-5.75Z"/>
  <path class="cls-3" d="m22.82,23c0,2.6.06,2.05,1.94,2.67,1.9.63,3.39,1.95,4.39,3.87,1.04,2.01,2.79,3.1,4.48,2.51,2.88-1,4.11-2.67,2.46-5.88-2.65-5.18-6.9-7.9-12.22-8.87-.75-.14-.95.36-.97.95"/>
  <path class="cls-4" d="m54.04,37.95c-.08-.17-.17-.38-.27-.59-1.73-3.78-3.46-7.56-5.19-11.34-.26-.56-.46-1.08-1.27-1.06-.77.02-.89.57-1.12,1.06-1.74,3.78-3.47,7.55-5.19,11.34-.14.32-.63.78.03,1.03.42.15.93.16,1.18-.43.25-.6.6-1.17.79-1.79.3-1,.86-1.39,1.94-1.33,1.63.09,3.27.09,4.9,0,1.02-.06,1.55.33,1.85,1.26.21.66.56,1.28.85,1.92.22.49.66.45,1.08.42.24-.02.47-.1.39-.48Zm-4.22-4.34c-1.63,0-3.26,0-4.89,0-.5,0-.68-.22-.46-.71.92-2.06,1.84-4.12,2.9-6.48,1.07,2.39,1.99,4.45,2.92,6.51.22.5.04.68-.46.68Z"/>
  <path class="cls-4" d="m111.23,37.95c-.08-.17-.17-.38-.27-.59-1.73-3.78-3.46-7.56-5.19-11.34-.26-.56-.46-1.08-1.27-1.06-.77.02-.89.57-1.12,1.06-1.74,3.78-3.47,7.55-5.19,11.34-.14.32-.63.78.03,1.03.42.15.93.16,1.18-.43.25-.6.6-1.17.79-1.79.3-1,.86-1.39,1.94-1.33,1.63.09,3.27.09,4.9,0,1.02-.06,1.55.33,1.85,1.26.21.66.56,1.28.85,1.92.22.49.66.45,1.08.42.24-.02.47-.1.39-.48Zm-4.22-4.34c-1.63,0-3.26,0-4.89,0-.5,0-.68-.22-.46-.71.92-2.06,1.84-4.12,2.9-6.48,1.07,2.39,1.99,4.45,2.92,6.51.22.5.04.68-.46.68Z"/>
</svg>